<svg xmlns="http://www.w3.org/2000/svg" data-name="Layer 1" viewBox="0 0 90 112.5" x="0px" y="0px"><title>Artboard 44</title><path d="M35.015,62.8a3.317,3.317,0,0,1-2.354-.973L20.241,49.4a3.328,3.328,0,0,1,.156-4.854,3.334,3.334,0,0,1,4.551.146l8.42,8.42a2.331,2.331,0,0,0,3.293,0L67.072,22.706a3.362,3.362,0,0,1,2.451-.974,3.329,3.329,0,0,1,2.256,5.681L37.368,61.824A3.317,3.317,0,0,1,35.015,62.8ZM22.594,44.724A2.327,2.327,0,0,0,20.948,48.7l12.42,12.42a2.331,2.331,0,0,0,3.293,0L71.072,26.706a2.329,2.329,0,0,0-1.579-3.974,2.342,2.342,0,0,0-1.714.681L37.368,53.824a3.332,3.332,0,0,1-4.707,0l-8.42-8.42A2.324,2.324,0,0,0,22.594,44.724Z"/><text x="0" y="105" fill="#000000" font-size="5px" font-weight="bold" font-family="'Helvetica Neue', Helvetica, Arial-Unicode, Arial, Sans-serif">Created by ME</text><text x="0" y="110" fill="#000000" font-size="5px" font-weight="bold" font-family="'Helvetica Neue', Helvetica, Arial-Unicode, Arial, Sans-serif">from the Noun Project</text></svg>