<svg xmlns="http://www.w3.org/2000/svg" xmlns:xlink="http://www.w3.org/1999/xlink" viewBox="0 0 100 125" version="1.1" x="0px" y="0px"><title>Close 6.7</title><desc>Created with Sketch.</desc><g stroke="none" stroke-width="1" fill="none" fill-rule="evenodd"><g stroke="#000000"><path d="M72.0184051,31.9815949 C73.1128097,30.8871903 73.1122704,29.1122704 72.023437,28.023437 L71.976563,27.976563 C70.8849374,26.8849374 69.1148189,26.8851811 68.0184051,27.9815949 L51.9815949,44.0184051 C50.8871903,45.1128097 49.1148189,45.1148189 48.0184051,44.0184051 L31.9815949,27.9815949 C30.8871903,26.8871903 29.1122704,26.8877296 28.023437,27.976563 L27.976563,28.023437 C26.8849374,29.1150626 26.8851811,30.8851811 27.9815949,31.9815949 L44.0184051,48.0184051 C45.1128097,49.1128097 45.1148189,50.8851811 44.0184051,51.9815949 L27.9815949,68.0184051 C26.8871903,69.1128097 26.8877296,70.8877296 27.976563,71.976563 L28.023437,72.023437 C29.1150626,73.1150626 30.8851811,73.1148189 31.9815949,72.0184051 L48.0184051,55.9815949 C49.1128097,54.8871903 50.8851811,54.8851811 51.9815949,55.9815949 L68.0184051,72.0184051 C69.1128097,73.1128097 70.8877296,73.1122704 71.976563,72.023437 L72.023437,71.976563 C73.1150626,70.8849374 73.1148189,69.1148189 72.0184051,68.0184051 L55.9815949,51.9815949 C54.8871903,50.8871903 54.8851811,49.1148189 55.9815949,48.0184051 L72.0184051,31.9815949 Z" transform="translate(50.000000, 50.000000) rotate(45.000000) translate(-50.000000, -50.000000) "/></g></g><text x="0" y="115" fill="#000000" font-size="5px" font-weight="bold" font-family="'Helvetica Neue', Helvetica, Arial-Unicode, Arial, Sans-serif">Created by Landan Lloyd</text><text x="0" y="120" fill="#000000" font-size="5px" font-weight="bold" font-family="'Helvetica Neue', Helvetica, Arial-Unicode, Arial, Sans-serif">from the Noun Project</text></svg>